<svg width="112" height="222" viewBox="0 0 112 222" fill="none" xmlns="http://www.w3.org/2000/svg">
<g id="bodyfront">
<path id="Dada_kiri" d="M25 30.5C24.7063 28.4086 35.1001 18.2173 39.5 15.5C39.5 15.5 46.6051 16.0016 50 18.5C52.7057 20.4912 55 25 55 25V36.5C52.0989 40.3553 49.9963 41.8568 45.5 43.5C40.8421 43.2004 38.4559 42.99 34.5 41C31.5665 39.253 25.2958 32.6056 25 30.5Z" fill="#D9D9D9"/>
<path id="bahu_kiri" d="M15.5 23C14 28 15 37 15 37C15 37 20.5 36 24.5 29.5C28.5 23 33.5636 19.1637 38.5 15L30 11.5C22.6902 13.0901 17 18 15.5 23Z" fill="#D9D9D9"/>
<path id="Arm_biceps_kiri" d="M15.5 38C18.7807 36.4088 20.6272 35.8855 24 32C24 32 26.7346 34.7428 27.5 37C28.3779 39.5889 27.7193 41.2751 27.5 44C27.1806 47.9698 27.1926 51.2001 25.5 54C23.8074 56.7999 19.3823 59.5657 18.5 60C18.0444 60.2243 15.8443 57.1267 15 54.5C14.1557 51.8733 15.5 38 15.5 38Z" fill="#D9D9D9"/>
<g id="Arm_forearm_kiri">
<path d="M18 61.5C20.7035 60.0144 22.1463 58.6476 24.5 57C24.6973 65.2902 23.8775 70.4694 22 76.5C16.7856 88.9278 14.0265 94.1318 8 103.5L3.5 102.5C11.078 86.5642 14.7048 77.1685 18 61.5Z" fill="#D9D9D9"/>
<path d="M17.5 60.5C16.6013 59.5062 15.573 58.8859 14.5 56C11.9491 60.6993 7.33579 66.4554 6.5 73.5C5.66421 80.5446 1.70092 100.344 0 102H2.5C9.10805 87.9296 13.3978 77.8488 17.5 60.5Z" fill="#D9D9D9"/>
</g>
<g id="core_kiri">
<path d="M46 44.5C49.488 43.1079 51.9568 41.9548 55.5 39V50C52.0445 50.2464 49.5721 50.8151 46 52.5V44.5Z" fill="#D9D9D9"/>
<path d="M45.5 54.5C49.2894 52.4975 52.2472 51.4982 55.5 51.5V59C52.28 59.283 49.3322 60.3711 45.5 62.5V54.5Z" fill="#D9D9D9"/>
<path d="M45.5 64C46.3818 63.2539 52.6402 60.4014 55.5 60.5V72L45.5 73C45.5 73 45.6516 68.1539 45.5 64Z" fill="#D9D9D9"/>
<path d="M44.5 72V66C39.963 64.4644 37.4527 62.8739 33 59.5V65.5C38.9561 70.4262 44.5 72 44.5 72Z" fill="#D9D9D9"/>
<path d="M44.5 60.5C38.756 58.3367 36.4788 56.4665 32 51L32.5 56.5C33.0914 57.996 39.325 63.5249 44.5 64.5V60.5Z" fill="#D9D9D9"/>
<path d="M44.5 59V54.5C39.9697 53.1604 37.5704 50.3385 33.5 45.5L32.5 49.5C36.9139 55.3093 39.5223 57.1321 44.5 59Z" fill="#D9D9D9"/>
<path d="M33.5 42C31.7217 41.2768 31.1159 39.9699 29 38C29.076 44.2372 28.963 47.3459 30 52.5C31.9183 48.0319 32.7748 46.0951 33.5 42Z" fill="#D9D9D9"/>
<path d="M45 53V44.5C42.1327 44.9436 35.0148 42.8885 34.5 42.5L34 44.5C40.9914 52.0975 42.5842 52.6641 45 53Z" fill="#D9D9D9"/>
<path d="M45 74C42.3324 73.1748 39.6828 71.7328 33 67.5C32.8429 72.8265 32.6174 75.545 31.5 79C36.9006 86.7818 40.8979 90.4028 48.5 96.5C46.1056 89.405 45.4695 84.2644 45 74Z" fill="#D9D9D9"/>
</g>
<g id="legs_kiri">
<path d="M40 104C42.7678 101.687 44.5238 100.26 48 97.5L53.5 102.5C52.676 117.653 51.1901 125.314 45.5 136.5L40 104Z" fill="#D9D9D9"/>
<path d="M39.5 103C42.1899 100.358 43.8388 99.0527 47 97C43.8029 94.7752 41.5279 92.6489 37 88L39.5 103Z" fill="#D9D9D9"/>
<path d="M45 138L44 145C39.8939 132.239 37.3664 123.881 34.5 104.5C34.0038 97.6935 34.8503 94.8429 36 88.5C39.252 104.964 41.2629 116.242 45 138Z" fill="#D9D9D9"/>
<path d="M31 80.5C33.1554 83.5498 34.2632 85.0057 36 87C33.0512 94.4904 31.4173 98.525 27 118.5C25.8463 130.756 26.9338 137.014 30.5 147.5L31 159C28.9049 157.354 27.7999 155.994 26 152.5C24.5339 138.932 24.3367 130.926 25 116C26.5411 101.764 27.6704 93.9058 31 80.5Z" fill="#D9D9D9"/>
<path d="M38.5 131L35.5 152.5L31.5 147.5C27.9729 136.728 26.6026 129.816 28 119.5C31.2324 106.162 31.7826 101.797 34 94.5C33.4528 100.278 33.4061 103.184 34 107.5L38.5 131Z" fill="#D9D9D9"/>
<path d="M43 147L39.5 132.5L36.5 153.5C38.3132 163.056 39.5171 160.485 42 156.5C42.8091 153.046 42.9868 150.941 43 147Z" fill="#D9D9D9"/>
<path d="M29.5 219.5C25.5017 196.84 24.3143 185.625 26 171C28.658 168.774 29.7342 170.883 30.5 184C30.195 197.732 30.9138 206.179 32.5 221.5L29.5 219.5Z" fill="#D9D9D9"/>
<path d="M38 178C39.4173 190.114 37.4278 202.795 33.5 220.5C32.7935 213.671 31.1463 206.316 32.5 193C33.5079 184.454 35.9544 181.148 38 178Z" fill="#D9D9D9"/>
<path d="M24.5 190C26.145 205.498 26.6278 209.993 28.5 219.5H25.5C24.8574 210.921 25.0577 204.431 24.5 190Z" fill="#D9D9D9"/>
</g>
<path id="Back_Traps_kiri" d="M47 2C47.5963 9.8476 48.5917 13.8218 50 17C46.4371 15.5466 44.3569 14.9923 40.5 14.5C38.0267 13.7153 35.2328 12.5333 31.5 11C40.9411 8.21227 44.3694 6.16944 47 2Z" fill="#D9D9D9"/>
<path id="Dada_kanan" d="M86.5 30.5C86.7937 28.4086 76.3999 18.2173 72 15.5C72 15.5 64.8949 16.0016 61.5 18.5C58.7943 20.4912 56.5 25 56.5 25V36.5C59.4011 40.3553 61.5037 41.8568 66 43.5C70.6579 43.2004 73.0441 42.99 77 41C79.9335 39.253 86.2042 32.6056 86.5 30.5Z" fill="#D9D9D9"/>
<path id="bahu_kanan" d="M96 23C97.5 28 96.5 37 96.5 37C96.5 37 91 36 87 29.5C83 23 77.9364 19.1637 73 15L81.5 11.5C88.8098 13.0901 94.5 18 96 23Z" fill="#D9D9D9"/>
<path id="Arm_biceps_kanan" d="M96 38C92.7193 36.4088 90.8728 35.8855 87.5 32C87.5 32 84.7654 34.7428 84 37C83.1221 39.5889 83.7807 41.2751 84 44C84.3194 47.9698 84.3074 51.2001 86 54C87.6926 56.7999 92.1177 59.5657 93 60C93.4556 60.2243 95.6557 57.1267 96.5 54.5C97.3443 51.8733 96 38 96 38Z" fill="#D9D9D9"/>
<g id="Arm_forearm_kanan">
<path d="M93.5 61.5C90.7965 60.0144 89.3537 58.6476 87 57C86.8027 65.2902 87.6225 70.4694 89.5 76.5C94.7144 88.9278 97.4735 94.1318 103.5 103.5L108 102.5C100.422 86.5642 96.7952 77.1685 93.5 61.5Z" fill="#D9D9D9"/>
<path d="M94 60.5C94.8987 59.5062 95.927 58.8859 97 56C99.5509 60.6993 104.164 66.4554 105 73.5C105.836 80.5446 109.799 100.344 111.5 102H109C102.392 87.9296 98.1022 77.8488 94 60.5Z" fill="#D9D9D9"/>
</g>
<g id="core_kanan">
<path d="M65.5 44.5C62.012 43.1079 59.5432 41.9548 56 39V50C59.4555 50.2464 61.9279 50.8151 65.5 52.5V44.5Z" fill="#D9D9D9"/>
<path d="M66 54.5C62.2106 52.4975 59.2528 51.4982 56 51.5V59C59.22 59.283 62.1678 60.3711 66 62.5V54.5Z" fill="#D9D9D9"/>
<path d="M66 64C65.1182 63.2539 58.8598 60.4014 56 60.5V72L66 73C66 73 65.8484 68.1539 66 64Z" fill="#D9D9D9"/>
<path d="M67 72V66C71.537 64.4644 74.0473 62.8739 78.5 59.5V65.5C72.5439 70.4262 67 72 67 72Z" fill="#D9D9D9"/>
<path d="M67 60.5C72.744 58.3367 75.0212 56.4665 79.5 51L79 56.5C78.4086 57.996 72.175 63.5249 67 64.5V60.5Z" fill="#D9D9D9"/>
<path d="M67 59V54.5C71.5303 53.1604 73.9296 50.3385 78 45.5L79 49.5C74.5861 55.3093 71.9777 57.1321 67 59Z" fill="#D9D9D9"/>
<path d="M78 42C79.7783 41.2768 80.3841 39.9699 82.5 38C82.424 44.2372 82.537 47.3459 81.5 52.5C79.5817 48.0319 78.7252 46.0951 78 42Z" fill="#D9D9D9"/>
<path d="M66.5 53V44.5C69.3673 44.9436 76.4852 42.8885 77 42.5L77.5 44.5C70.5086 52.0975 68.9158 52.6641 66.5 53Z" fill="#D9D9D9"/>
<path d="M66.5 74C69.1676 73.1748 71.8172 71.7328 78.5 67.5C78.6571 72.8265 78.8826 75.545 80 79C74.5994 86.7818 70.6021 90.4028 63 96.5C65.3944 89.405 66.0305 84.2644 66.5 74Z" fill="#D9D9D9"/>
</g>
<g id="legs_kanan">
<path d="M71.5 104C68.7322 101.687 66.9762 100.26 63.5 97.5L58 102.5C58.824 117.653 60.3099 125.314 66 136.5L71.5 104Z" fill="#D9D9D9"/>
<path d="M72 103C69.3101 100.358 67.6612 99.0527 64.5 97C67.6971 94.7752 69.9721 92.6489 74.5 88L72 103Z" fill="#D9D9D9"/>
<path d="M66.5 138L67.5 145C71.6061 132.239 74.1336 123.881 77 104.5C77.4962 97.6935 76.6497 94.8429 75.5 88.5C72.248 104.964 70.2371 116.242 66.5 138Z" fill="#D9D9D9"/>
<path d="M80.5 80.5C78.3446 83.5498 77.2368 85.0057 75.5 87C78.4488 94.4904 80.0827 98.525 84.5 118.5C85.6537 130.756 84.5662 137.014 81 147.5L80.5 159C82.5951 157.354 83.7001 155.994 85.5 152.5C86.9661 138.932 87.1633 130.926 86.5 116C84.9589 101.764 83.8296 93.9058 80.5 80.5Z" fill="#D9D9D9"/>
<path d="M73 131L76 152.5L80 147.5C83.5271 136.728 84.8974 129.816 83.5 119.5C80.2676 106.162 79.7174 101.797 77.5 94.5C78.0472 100.278 78.0939 103.184 77.5 107.5L73 131Z" fill="#D9D9D9"/>
<path d="M68.5 147L72 132.5L75 153.5C73.1868 163.056 71.9829 160.485 69.5 156.5C68.6909 153.046 68.5132 150.941 68.5 147Z" fill="#D9D9D9"/>
<path d="M82 219.5C85.9983 196.84 87.1857 185.625 85.5 171C82.842 168.774 81.7658 170.883 81 184C81.305 197.732 80.5862 206.179 79 221.5L82 219.5Z" fill="#D9D9D9"/>
<path d="M73.5 178C72.0827 190.114 74.0722 202.795 78 220.5C78.7065 213.671 80.3537 206.316 79 193C77.9921 184.454 75.5456 181.148 73.5 178Z" fill="#D9D9D9"/>
<path d="M87 190C85.355 205.498 84.8722 209.993 83 219.5H86C86.6426 210.921 86.4423 204.431 87 190Z" fill="#D9D9D9"/>
</g>
<path id="Back_Traps_kanan" d="M64.5 2C63.9037 9.8476 62.9083 13.8218 61.5 17C65.0629 15.5466 67.1431 14.9923 71 14.5C73.4733 13.7153 76.2672 12.5333 80 11C70.5589 8.21227 67.1306 6.16944 64.5 2Z" fill="#D9D9D9"/>
<path id="core_tengah" d="M55.5 73.5L46 74.5C47.1155 93.3715 49.7019 98.6199 55.5 102.5C62.8646 98.0167 63.9903 91.0999 65.5 74.5L55.5 73.5Z" fill="#D9D9D9"/>
<path id="leher" d="M63.5 0C57.7772 4.68451 54.399 4.90699 48 0C48.8701 9.73329 49.6035 13.7588 51.5 17.5C53.6589 19.7109 54.6406 21.0272 56 23.5C57.3934 21.2373 58.2611 19.9268 60 17.5C62.0796 12.9541 62.7474 8.80608 63.5 0Z" fill="#D9D9D9"/>
<path id="Lutut" d="M26 169C26.8899 165.685 26.4663 161.873 26 155.5C29.3144 159.616 30.6479 160.824 32 161C31.9705 157.983 31.8532 155.395 31.5 149.5L35.5 154.5C37.4956 162.64 38.7245 163.013 41 160.5C39.5628 162.541 38.8275 164.179 38 170.5V176.5C32.5691 182.243 32.3094 184.917 31.5 195.5C31.8358 171.324 30.5992 167.187 26 169Z" fill="#D9D9D9"/>
<path id="Lutut_2" d="M85 168.924C84.1694 165.537 84.5648 161.642 85 155.13C81.9065 159.336 80.662 160.57 79.4 160.75C79.4275 157.668 79.537 155.023 79.8667 149L76.1333 154.109C74.2707 162.426 73.1238 162.807 71 160.239C72.3413 162.324 73.0277 163.998 73.8 170.457V176.587C78.8689 182.454 79.1112 185.187 79.8667 196C79.5533 171.298 80.7074 167.071 85 168.924Z" fill="#D9D9D9"/>
</g>
</svg>
