<svg width="112" height="237" viewBox="0 0 112 237" fill="none" xmlns="http://www.w3.org/2000/svg">
<g id="bodyback">
<path id="bahu_belakang_kiri" d="M23.5 36C26.8564 26.2811 31.065 24.8812 39.5 24C38.4592 20.814 37.5998 19.5769 35.5 18.5C33.4829 18.1348 32.2202 17.3142 30 16C15.4356 19.4917 11.3537 24.4403 16 42C19.3307 41.2817 21.0314 40.2051 23.5 36Z" fill="#D9D9D9"/>
<g id="Arms_belakang_kiri">
<path d="M28.5 49.5C28.2407 56.7077 27.0471 61.8537 24 72C21.1137 55.4283 18.8407 54.5438 13.5 69.5C13.6196 55.1313 14.2822 49.8693 16 43C19.6149 42.3339 21.1679 41.0719 23.5 38C23.5 38 27.1343 41.5904 28.5 49.5Z" fill="#D9D9D9"/>
<path d="M12.5 64C10.4683 66.8551 9.2972 68.9597 7 76C4.79726 99.6988 3.04384 99.7461 0.135298 105.42C5.18755 104.039 8.24392 98.5895 14 82.5C13.6243 80.0156 13.5 76.5 13 75C12.5 73.5 12.5 64 12.5 64Z" fill="#D9D9D9"/>
<path d="M8 109C6.60935 107.043 4.94297 106.553 1.5 106C6.68645 103.721 9.39828 98.8869 14 86V91C17.2894 89.531 19.7197 83.6015 24 73.5C22.8245 79.5255 22.7641 81.979 8 109Z" fill="#D9D9D9"/>
<path d="M22.5 72C20.7353 56.9969 18.7693 56.9506 13.5 72C14.7786 77.6463 15.0587 81.3146 15 88.5C17.8312 86.1014 19.4854 81.9884 22.5 72Z" fill="#D9D9D9"/>
</g>
<g id="back_kiri">
<path d="M29 46.5C32.5315 53.8924 34.4651 54.1342 39 54C34.2648 41.9073 31.3763 36.9058 25.5 33.5L24 37C26.8501 40.6008 28.5125 43.0855 29 46.5Z" fill="#D9D9D9"/>
<path d="M40 54H44C41.0506 48.336 39.7187 43.685 39.5 25.5C33.9607 25.5184 30.8225 25.1989 26 32.5L31.5 37C35.26 41.9023 37.1334 45.5761 40 54Z" fill="#D9D9D9"/>
<path d="M32.5 69.5C32.4857 62.7034 31.7494 58.3778 29.5 50C32.0365 54.5921 35.4017 55.7097 45 55C49.1163 60.9984 51.0815 63.5424 55 66.5C50.6156 67.585 49.0497 69.5249 46.5 74.5C45.0062 79.5271 40 84.5 40 84.5C39.7714 80.8547 38.8128 78.1303 32.5 69.5Z" fill="#D9D9D9"/>
<path d="M32.5 81.5C34.4079 83.1312 36.2998 83.5609 39 84C38.7348 79.9999 36.6403 76.9946 32.5 71.5V81.5Z" fill="#D9D9D9"/>
<path d="M47.5 0.5C44.9159 8.96826 42.0537 12.7845 31.5 16C34.9855 17.9352 37.6998 18.4689 44.5 18C50.3695 17.0252 51.86 12.1821 54.5 3.5C52.156 2.91784 51.3528 1.90804 50 0L47.5 0.5Z" fill="#D9D9D9"/>
</g>
<g id="Legs_belakang_kiri">
<path d="M40.5 115.5C34 117 31.0272 122.546 30 123.5C27.6315 108.002 28.0487 99.4964 35 85C47.6916 86.274 52.1782 90.6769 54.5 106.5C51.3719 112.23 47 114 40.5 115.5Z" fill="#D9D9D9"/>
<path d="M33.5 84.5L32 83.5L25.5 113.5L27.5 111C28.358 103.711 27.0914 102.541 33.5 84.5Z" fill="#D9D9D9"/>
<path d="M29.5 126.5C28.5821 122.904 28.1558 119.806 27.5 113L25 116C24.0369 137.52 24.7758 145.196 26 157.5C28.2504 158.043 29.2553 148.022 29.5 126.5Z" fill="#D9D9D9"/>
<path d="M26 174V160C29.0233 159.053 30.2876 152.982 31 125C33.7932 119.543 37.2355 118.11 43 116C38.8875 121.813 36.7697 130.407 35 151C34.1817 165.337 32.4227 170.793 26 174Z" fill="#D9D9D9"/>
<path d="M24 191C25.5874 185.361 25.8124 181.858 26 175.5C28.9874 174.046 30.5332 172.678 33 169C32.0957 183.409 31.5986 192.159 30.5 193.5C27.0559 197.044 25.4398 198.24 23.5 198C23.444 195.352 23.4786 193.845 24 191Z" fill="#D9D9D9"/>
<path d="M32.5 190.5L34.5 165L39.5 174C38.7132 176.192 38.3143 177.616 38 182C38.5005 193.655 38.0338 197.948 36.5 203.5C32.9261 199.496 31.5891 196.896 32.5 190.5Z" fill="#D9D9D9"/>
<path d="M35 162.5C36.3685 165.906 37.4078 168.029 39.5 172L40.5 165C40.1092 145.007 41.1127 136.995 45.5 129.5L43 118.5C39.6714 123.429 37.8926 131.425 35 162.5Z" fill="#D9D9D9"/>
<path d="M53.5 110C52.5287 122.775 51.3002 128.302 48 135.5L44 116C49.2529 113.847 50.8387 113.103 53.5 110Z" fill="#D9D9D9"/>
<path d="M47 137.5C44.038 143.701 43.1491 150.554 41.5 162.5C41.6551 146.646 42.7981 137.97 46 131.5L47 137.5Z" fill="#D9D9D9"/>
</g>
<path id="bahu_belakang_kanan" d="M88 36C84.6436 26.2811 80.435 24.8812 72 24C73.0408 20.814 73.9002 19.5769 76 18.5C78.0171 18.1348 79.2798 17.3142 81.5 16C96.0644 19.4917 100.146 24.4403 95.5 42C92.1693 41.2817 90.4686 40.2051 88 36Z" fill="#D9D9D9"/>
<g id="Arms_belakang_kanan">
<path d="M83 49.5C83.2593 56.7077 84.4529 61.8537 87.5 72C90.3863 55.4283 92.6593 54.5438 98 69.5C97.8804 55.1313 97.2178 49.8693 95.5 43C91.8851 42.3339 90.3321 41.0719 88 38C88 38 84.3657 41.5904 83 49.5Z" fill="#D9D9D9"/>
<path d="M99 64C101.032 66.8551 102.203 68.9597 104.5 76C106.703 99.6988 108.456 99.7461 111.365 105.42C106.312 104.039 103.256 98.5895 97.5 82.5C97.8757 80.0156 98 76.5 98.5 75C99 73.5 99 64 99 64Z" fill="#D9D9D9"/>
<path d="M103.5 109C104.891 107.043 106.557 106.553 110 106C104.814 103.721 102.102 98.8869 97.5 86V91C94.2106 89.531 91.7803 83.6015 87.5 73.5C88.6755 79.5255 88.7359 81.979 103.5 109Z" fill="#D9D9D9"/>
<path d="M89 72C90.7647 56.9969 92.7307 56.9506 98 72C96.7214 77.6463 96.4413 81.3146 96.5 88.5C93.6688 86.1014 92.0146 81.9884 89 72Z" fill="#D9D9D9"/>
</g>
<g id="back_kanan">
<path d="M82.5 46.5C78.9685 53.8924 77.0349 54.1342 72.5 54C77.2352 41.9073 80.1237 36.9058 86 33.5L87.5 37C84.6499 40.6008 82.9875 43.0855 82.5 46.5Z" fill="#D9D9D9"/>
<path d="M71.5 54H67.5C70.4494 48.336 71.7813 43.685 72 25.5C77.5393 25.5184 80.6775 25.1989 85.5 32.5L80 37C76.24 41.9023 74.3666 45.5761 71.5 54Z" fill="#D9D9D9"/>
<path d="M79 69.5C79.0143 62.7034 79.7506 58.3778 82 50C79.4635 54.5921 76.0983 55.7097 66.5 55C61.53 61.6812 59.8907 63.933 56.5 66.5C60.8844 67.585 62.4503 69.5249 65 74.5C66.4938 79.5271 71.5 84.5 71.5 84.5C71.7286 80.8547 72.6872 78.1303 79 69.5Z" fill="#D9D9D9"/>
<path d="M79 81.5C77.0921 83.1312 75.2002 83.5609 72.5 84C72.7652 79.9999 74.8597 76.9946 79 71.5V81.5Z" fill="#D9D9D9"/>
<path d="M64 0.5C66.5841 8.96826 69.4463 12.7845 80 16C76.5145 17.9352 73.8002 18.4689 67 18C61.1305 17.0252 59.64 12.1821 57 3.5C59.344 2.91784 60.1472 1.90804 61.5 0L64 0.5Z" fill="#D9D9D9"/>
</g>
<g id="Legs_belakang_kanan">
<path d="M71 115.5C77.5 117 80.4728 122.546 81.5 123.5C83.8685 108.002 83.4513 99.4964 76.5 85C63.8084 86.274 59.3218 90.6769 57 106.5C60.1281 112.23 64.5 114 71 115.5Z" fill="#D9D9D9"/>
<path d="M78 84.5L79.5 83.5L86 113.5L84 111C83.142 103.711 84.4086 102.541 78 84.5Z" fill="#D9D9D9"/>
<path d="M82 126.5C82.9179 122.904 83.3442 119.806 84 113L86.5 116C87.4631 137.52 86.7242 145.196 85.5 157.5C83.2496 158.043 82.2447 148.022 82 126.5Z" fill="#D9D9D9"/>
<path d="M85.5 174V160C82.4767 159.053 81.2124 152.982 80.5 125C77.7068 119.543 74.2645 118.11 68.5 116C72.6125 121.813 74.7303 130.407 76.5 151C77.3183 165.337 79.0773 170.793 85.5 174Z" fill="#D9D9D9"/>
<path d="M87.5 191C85.9126 185.361 85.6876 181.858 85.5 175.5C82.5126 174.046 80.9668 172.678 78.5 169C79.4043 183.409 79.9014 192.159 81 193.5C84.4441 197.044 86.0602 198.24 88 198C88.056 195.352 88.0214 193.845 87.5 191Z" fill="#D9D9D9"/>
<path d="M79 190.5L77 165L72 174C72.7868 176.192 73.1857 177.616 73.5 182C72.9995 193.655 73.4662 197.948 75 203.5C78.5739 199.496 79.9109 196.896 79 190.5Z" fill="#D9D9D9"/>
<path d="M76.5 162.5C75.1315 165.906 74.0922 168.029 72 172L71 165C71.3908 145.007 70.3873 136.995 66 129.5L68.5 118.5C71.8286 123.429 73.6074 131.425 76.5 162.5Z" fill="#D9D9D9"/>
<path d="M58 110C58.9713 122.775 60.1998 128.302 63.5 135.5L67.5 116C62.2471 113.847 60.6613 113.103 58 110Z" fill="#D9D9D9"/>
<path d="M64.5 137.5C67.462 143.701 68.3509 150.554 70 162.5C69.8449 146.646 68.7019 137.97 65.5 131.5L64.5 137.5Z" fill="#D9D9D9"/>
</g>
<path id="back_belakang_tengah" d="M41 85C51.281 87.3141 54.0267 92.7144 55.5 107C57.939 91.8444 61.4176 87.4007 70.5 85C67.5999 82.0896 66.1005 80.2463 64 76C61.7048 70.3972 59.8231 68.2226 55.5 67.5C51.8576 68.3051 49.6436 70.6445 47.5 76C45.3564 81.3555 42.8225 83.2204 41 85Z" fill="#D9D9D9"/>
<path id="back_belakang_tengah_atas" d="M41 25.5C40.1173 46.9902 44.3277 55.152 55.5 65.5C67.4556 54.837 71.1422 47.4361 70.5 26C70.1726 23.9426 71.9114 22.5061 73 19.5C62.6433 20.5272 59.4495 15.4804 56 5C52.1943 16.6992 48.6022 20.2043 38.5 19C40.3465 20.2042 40.228 21.3072 41 25.5Z" fill="#D9D9D9"/>
<path id="betis_belakang_kiri" d="M24 198.5C27.9124 197.176 30.8573 193.672 30.995 193.506C30.9966 193.504 30.9983 193.502 31 193.5C31 193.5 30.9983 193.502 30.995 193.506C30.3665 194.294 32.7724 202.333 36.5 204C35.4662 216.264 34.8554 222.427 33.5 232.5C29.1135 236.058 26.9462 236.012 23.5 233C25.2169 226.551 25.4363 222.938 25 216.5C23.316 204.52 23.4782 202.038 24 198.5Z" fill="#D9D9D9"/>
<path id="betis_belakang_kanan" d="M87.5 199.5C83.5876 198.176 80.6427 194.672 80.505 194.506C80.5034 194.504 80.5017 194.502 80.5 194.5C80.5 194.5 80.5017 194.502 80.505 194.506C81.1335 195.294 78.7276 203.333 75 205C76.0338 217.264 76.6446 223.427 78 233.5C82.3865 237.058 84.5538 237.012 88 234C86.2831 227.551 86.0637 223.938 86.5 217.5C88.184 205.52 88.0218 203.038 87.5 199.5Z" fill="#D9D9D9"/>
</g>
</svg>
